<svg width="200" height="200" xmlns="http://www.w3.org/2000/svg">
    <path d="M 60,0 Q80,100 60,200 40,100 60,0z" fill="#5500ff"/>
    <path d="M 140,0 Q160,100 140,200 120,100 140,0z" fill="#5500ff"/>
    <path d="M 0,200 Q30,100 60,50 100,85 140,50 170,100 200,200 Q100,80 0,200z
    M 50,110 Q100,120 150,110 Q100,70 50,110z" fill="#444444" fill-rule="evenodd"/>
    <circle cx="100" cy="102.5" r="12" fill="#000000"/>
    <path d="M 109,102.5 A 9 9 0 0 1 91,102.5" stroke="#7700ff" stroke-width="3"/>
    <path d="M 109,102.5 A 9 9 1 0 0 91,102.5" stroke="#3b007f" stroke-width="3"/>
    <circle cx="97" cy="100" r="5" fill="#ffffff"/>
    <circle cx="104" cy="107" r="2" fill="#ffffff"/>
</svg>